<?xml version="1.0" standalone="no"?>
<!DOCTYPE svg PUBLIC "-//W3C//DTD SVG 20010904//EN"
 "http://www.w3.org/TR/2001/REC-SVG-20010904/DTD/svg10.dtd">
<svg version="1.0" xmlns="http://www.w3.org/2000/svg"
 width="559.000000pt" height="897.000000pt" viewBox="0 0 559.000000 897.000000"
 preserveAspectRatio="xMidYMid meet">

<g transform="translate(0.000000,897.000000) scale(0.100000,-0.100000)"
fill="rgb(207, 204, 204)" stroke="none">
<path d="M1175 6768 c5 -210 9 -1299 9 -2419 l1 -2036 485 -6 c678 -10 1239
-8 1412 3 243 16 436 64 632 159 553 268 905 823 990 1561 20 166 20 607 2
760 -7 58 -9 109 -5 114 22 24 -1 437 -37 676 -66 447 -285 874 -579 1130
-197 172 -470 311 -738 375 -238 58 -236 57 -1246 62 l-934 5 8 -384z m1825
238 c382 -59 698 -200 953 -423 213 -187 398 -471 502 -772 19 -57 33 -107 29
-110 -3 -3 -10 2 -15 11 -30 54 -145 196 -223 276 -309 318 -724 494 -1228
522 -95 5 -520 10 -944 10 l-771 0 -6 158 c-4 86 -7 201 -7 255 l0 99 803 -5
c677 -4 818 -7 907 -21z m-152 -656 c334 -19 649 -109 895 -256 243 -146 468
-378 616 -638 290 -508 341 -1205 135 -1826 -211 -635 -674 -1068 -1276 -1190
-164 -34 -390 -41 -1183 -38 l-750 3 -3 1965 c-1 1081 0 1971 3 1978 6 15
1291 17 1563 2z m1717 -860 c3 -5 1 -10 -4 -10 -6 0 -11 5 -11 10 0 6 2 10 4
10 3 0 8 -4 11 -10z"/>
<path d="M1990 4375 l0 -1386 528 3 527 4 100 27 c118 32 258 98 337 161 197
156 327 467 368 878 17 169 8 723 -14 848 -77 439 -246 670 -572 781 -174 59
-203 62 -761 66 l-513 4 0 -1386z m960 1266 c74 -10 168 -31 209 -45 277 -97
471 -322 551 -638 37 -148 47 -233 30 -253 -7 -9 -28 -73 -45 -143 -105 -414
-321 -652 -684 -750 -96 -26 -97 -26 -491 -27 -217 0 -403 3 -412 7 -17 7 -18
61 -18 931 0 508 3 927 7 930 3 4 166 7 362 7 291 -1 381 -4 491 -19z m770
-1445 c0 -3 -4 -8 -10 -11 -5 -3 -10 -1 -10 4 0 6 5 11 10 11 6 0 10 -2 10 -4z
m-66 -213 c-12 -65 -54 -205 -83 -275 -120 -284 -305 -447 -596 -525 -98 -26
-108 -27 -463 -31 l-362 -4 2 254 3 253 450 6 c445 5 451 6 547 31 189 51 350
149 448 272 25 31 48 56 53 56 4 0 5 -17 1 -37z"/>
</g>
</svg>
